<svg xmlns="http://www.w3.org/2000/svg" width="15" height="15" viewBox="0 0 20 20" fill="none">
<path d="M18.3346 2.49935C18.3346 2.72036 18.2468 2.93232 18.0906 3.0886C17.9343 3.24489 17.7223 3.33268 17.5013 3.33268H2.5013C2.28029 3.33268 2.06833 3.24489 1.91205 3.0886C1.75577 2.93232 1.66797 2.72036 1.66797 2.49935C1.66797 2.27834 1.75577 2.06637 1.91205 1.91009C2.06833 1.75381 2.28029 1.66602 2.5013 1.66602H17.5013C17.7223 1.66602 17.9343 1.75381 18.0906 1.91009C18.2468 2.06637 18.3346 2.27834 18.3346 2.49935ZM14.168 6.66602H2.5013C2.28029 6.66602 2.06833 6.75381 1.91205 6.91009C1.75577 7.06637 1.66797 7.27834 1.66797 7.49935C1.66797 7.72036 1.75577 7.93232 1.91205 8.0886C2.06833 8.24489 2.28029 8.33268 2.5013 8.33268H14.168C14.389 8.33268 14.6009 8.24489 14.7572 8.0886C14.9135 7.93232 15.0013 7.72036 15.0013 7.49935C15.0013 7.27834 14.9135 7.06637 14.7572 6.91009C14.6009 6.75381 14.389 6.66602 14.168 6.66602ZM10.0013 11.666H2.5013C2.28029 11.666 2.06833 11.7538 1.91205 11.9101C1.75577 12.0664 1.66797 12.2783 1.66797 12.4993C1.66797 12.7204 1.75577 12.9323 1.91205 13.0886C2.06833 13.2449 2.28029 13.3327 2.5013 13.3327H10.0013C10.2223 13.3327 10.4343 13.2449 10.5906 13.0886C10.7468 12.9323 10.8346 12.7204 10.8346 12.4993C10.8346 12.2783 10.7468 12.0664 10.5906 11.9101C10.4343 11.7538 10.2223 11.666 10.0013 11.666ZM5.83464 16.666H2.5013C2.28029 16.666 2.06833 16.7538 1.91205 16.9101C1.75577 17.0664 1.66797 17.2783 1.66797 17.4993C1.66797 17.7204 1.75577 17.9323 1.91205 18.0886C2.06833 18.2449 2.28029 18.3327 2.5013 18.3327H5.83464C6.05565 18.3327 6.26761 18.2449 6.42389 18.0886C6.58017 17.9323 6.66797 17.7204 6.66797 17.4993C6.66797 17.2783 6.58017 17.0664 6.42389 16.9101C6.26761 16.7538 6.05565 16.666 5.83464 16.666Z" fill="#FBFBFB"/>
</svg>